EXCLUSIVE DHAMAKA FROM Henry

-----------------------------------------------------------------------------------
Format                           : Matroska
File size                        : 397 MiB
Duration                         : 2h 5mn
Overall bit rate                 : 441 Kbps
Movie name                       : No Problem 2010 DvDScr x264 - Henry Kharay
Encoded date                     : UTC 2010-12-11 16:07:59
Writing application              : mkvmerge v4.2.0 ('No Talking') built on Jul 28 2010 18:38:23
Writing library                  : libebml v1.0.0 + libmatroska v1.0.0
-----------------------------------------------------------------------------------
Video
ID                               : 1
Format                           : AVC
Format/Info                      : Advanced Video Codec
Format profile                   : High@L2.1
Format settings, CABAC           : Yes
Format settings, ReFrames        : 4 frames
Muxing mode                      : Container profile=Unknown@2.1
Codec ID                         : V_MPEG4/ISO/AVC
Duration                         : 2h 5mn
Bit rate                         : 344 Kbps
Width                            : 688 pixels
Height                           : 240 pixels
Display aspect ratio             : 2.867
Frame rate                       : 25.000 fps
Color space                      : YUV
Chroma subsampling               : 4:2:0
Bit depth                        : 8 bits
Scan type                        : Progressive
Bits/(Pixel*Frame)               : 0.083
Stream size                      : 303 MiB (76%)
Writing library                  : x264 
-----------------------------------------------------------------------------------
Audio
ID                               : 2
Format                           : MPEG Audio
Format version                   : Version 2
Format profile                   : Layer 3
Mode                             : Joint stereo
Mode extension                   : MS Stereo
Codec ID                         : A_MPEG/L3
Codec ID/Hint                    : MP3
Duration                         : 2h 5mn
Bit rate mode                    : Variable
Bit rate                         : 95.6 Kbps
Nominal bit rate                 : 128 Kbps
Channel(s)                       : 2 channels
Sampling rate                    : 24.0 KHz
Stream size                      : 86.1 MiB (22%)
Writing library                  : LAME3.98r
Encoding settings                : -m j -V 4 -q 2 -lowpass 12 --abr 128
 
http://bapugunda.com/images.php?i=4538_9.png 
http://bapugunda.com/images.php?i=4539_10.png 
http://bapugunda.com/images.php?i=4537_8.png

Sample Include In Torrent 

Thnx 
keep Seeding

